# xmcd
#
# Track frame offsets: 
#        150
#        15472
#        24906
#        34043
#        45607
#        61118
#        74145
#        91391
#        103082
#        117913
#        137418
#        150845
#
# Disc length: 2148 seconds
#
# Revision: 0
# Processed by: cddbd v1.5.2PL0 Copyright (c) Steve Scherf et al.
# Submitted via: ExactAudioCopy v0.95b4
#
DISCID=8e08620c
DTITLE=Bill Withers - Just As I Am
DYEAR=1971
DGENRE=R&B
TTITLE0=Harlem
TTITLE1=Ain't No Sunshine
TTITLE2=Grandma's Hands
TTITLE3=Sweet Wanomi
TTITLE4=Everybody's Talkin'
TTITLE5=Do It Good
TTITLE6=Hope She'll Be Happier
TTITLE7=Let It Be
TTITLE8=I'm Her Daddy
TTITLE9=In My Heart
TTITLE10=Moanin' and Groanin'
TTITLE11=Better Off Dead
EXTD=
EXTT0=
EXTT1=
EXTT2=
EXTT3=
EXTT4=
EXTT5=
EXTT6=
EXTT7=
EXTT8=
EXTT9=
EXTT10=
EXTT11=
PLAYORDER=
